<svg preserveAspectRatio="none" width="100%" height="100%" overflow="visible" style="display: block;" viewBox="0 0 24 24" fill="none" xmlns="http://www.w3.org/2000/svg">
<path id="Union" fill-rule="evenodd" clip-rule="evenodd" d="M13.2197 1.84561C14.7904 0.275179 16.9805 -0.290369 18.9991 0.138741C19.5276 0.25139 19.8636 0.643521 19.9598 1.09375C20.0532 1.53279 19.9195 2.01909 19.5668 2.37153L17.0815 4.85683C16.5132 5.42646 16.5128 6.34983 17.0815 6.91874C17.6504 7.48708 18.5738 7.48707 19.1434 6.91874L21.6306 4.43344C21.9834 4.08097 22.4693 3.94667 22.9084 4.04042C23.3586 4.13683 23.7492 4.47439 23.8615 5.00303C24.29 7.02171 23.725 9.2121 22.1547 10.7825C20.3419 12.5943 17.7071 13.0642 15.4582 12.2159L4.48602 23.1938C3.53708 24.1422 1.99836 24.1417 1.04951 23.1938L0.711552 22.8558C-0.237351 21.9069 -0.237017 20.3684 0.711552 19.4193L11.7255 8.39967C10.9512 6.18226 11.4467 3.61903 13.2197 1.84561ZM21.811 10.4369C21.5966 10.6513 21.3684 10.844 21.1313 11.0179C21.2472 10.9328 21.3622 10.8449 21.4731 10.7502C21.5886 10.6515 21.7017 10.5462 21.811 10.4369ZM17.0436 7.51111C17.0661 7.52598 17.0908 7.53716 17.1138 7.55099C17.0835 7.53276 17.0522 7.51595 17.0227 7.49593L17.0436 7.51111ZM19.1093 7.55099C19.1327 7.53691 19.1584 7.52627 19.1814 7.51111L19.2023 7.49593C19.1723 7.51625 19.1401 7.53251 19.1093 7.55099ZM16.324 5.12264C16.3937 4.95927 16.4885 4.80433 16.605 4.66127L16.7379 4.51318C16.557 4.69426 16.4186 4.9007 16.324 5.12264Z" fill="url(#paint0_linear_596_1875)"/>
<defs>
<linearGradient id="paint0_linear_596_1875" x1="12" y1="0" x2="12" y2="23.9049" gradientUnits="userSpaceOnUse">
<stop stop-color="white"/>
<stop offset="1" stop-color="#999999"/>
</linearGradient>
</defs>
</svg>
