<svg preserveAspectRatio="none" width="100%" height="100%" overflow="visible" style="display: block;" viewBox="0 0 50 50" fill="none" xmlns="http://www.w3.org/2000/svg">
<path id="Union" fill-rule="evenodd" clip-rule="evenodd" d="M24.793 0C38.4638 8.93623e-06 49.5859 11.1222 49.5859 24.793C49.5859 38.4638 38.4638 49.5859 24.793 49.5859C11.1222 49.5859 8.93166e-06 38.4638 0 24.793C0 11.1222 11.1222 0 24.793 0ZM28.8015 36.3876C26.1665 35.9085 23.4194 35.9079 20.7844 36.3876C21.041 38.0783 21.3552 39.6539 21.7251 41.0718H21.7263C22.9889 45.9143 24.3685 46.9749 24.7936 46.9749C25.2187 46.9749 26.5976 45.9143 27.8609 41.0718C28.2302 39.6539 28.5443 38.0789 28.8015 36.3876ZM18.2388 37.0123C16.8364 37.4446 15.482 38.0166 14.1894 38.7228C14.5348 39.4093 14.9053 40.0718 15.3052 40.6995C16.8496 43.1217 18.677 44.8921 20.6537 45.9233C20.1171 44.7872 19.6315 43.3897 19.1986 41.7307V41.7313C18.8239 40.2942 18.5032 38.709 18.2388 37.0123ZM31.3472 37.0123C31.0828 38.7084 30.762 40.2936 30.3873 41.7301C29.9551 43.3891 29.4694 44.7866 28.9323 45.9227C30.909 44.8915 32.7364 43.1211 34.2808 40.6989C34.6807 40.0712 35.0506 39.4087 35.3965 38.7222C34.1051 38.0172 32.7507 37.4458 31.3472 37.0123ZM11.9645 40.1101C11.3578 40.5412 10.7714 41.0029 10.2097 41.4933C11.6725 42.7721 13.3045 43.8621 15.0666 44.7255C14.3741 43.9395 13.717 43.0653 13.1036 42.103H13.103C12.6978 41.4669 12.3194 40.7996 11.9645 40.1101ZM37.6209 40.1101C37.2659 40.8002 36.8876 41.4669 36.4823 42.103H36.4817C35.8684 43.0653 35.2119 43.9395 34.5188 44.7255C36.2815 43.8621 37.9128 42.7721 39.3757 41.4933C38.8139 41.0023 38.2276 40.5406 37.6209 40.1101ZM2.65 26.0988C2.95337 31.2992 5.05539 36.0236 8.34269 39.6581C9.14248 38.9482 9.98724 38.2923 10.8686 37.6934C9.48122 34.2118 8.67601 30.2488 8.53631 26.0988H2.65ZM41.049 26.0988C40.9099 30.2488 40.1042 34.2118 38.7168 37.6934C39.598 38.2922 40.4426 38.948 41.2423 39.6577C44.5295 36.0233 46.6314 31.2985 46.9348 26.0988H41.049ZM11.1497 26.0988C11.281 29.7596 11.9621 33.249 13.1324 36.327C14.6487 35.5165 16.2393 34.8671 17.8874 34.3911C17.5894 31.7891 17.4132 28.9916 17.3724 26.0988H11.1497ZM32.213 26.0988C32.1728 28.9916 31.9965 31.7897 31.698 34.3917C33.3471 34.8689 34.9381 35.5175 36.4524 36.3267C37.6232 33.2487 38.3037 29.7589 38.435 26.0988H32.213ZM19.9834 26.0988C20.0224 28.7829 20.1795 31.3778 20.4457 33.794C23.3053 33.2898 26.2794 33.2897 29.1391 33.7938C29.4052 31.3777 29.563 28.7835 29.6014 26.0988H19.9834ZM41.2421 9.92844C40.4429 10.6371 39.5982 11.293 38.7168 11.8932C40.1048 15.3747 40.9099 19.3377 41.0496 23.4878H46.9347C46.6312 18.2875 44.5293 13.5627 41.2421 9.92844ZM8.34269 9.92908C5.05599 13.5635 2.95396 18.2879 2.65059 23.4878H8.53631C8.67541 19.3377 9.48122 15.3753 10.8686 11.8938C9.98724 11.2942 9.14248 10.6383 8.34269 9.92908ZM13.1324 13.2595C11.9615 16.3376 11.281 19.8275 11.1497 23.4878H17.3718C17.4126 20.5944 17.5888 17.7957 17.8874 15.1937C16.2417 14.7182 14.6505 14.0695 13.1324 13.259V13.2595ZM29.1403 15.7914C27.7116 16.0444 26.2534 16.1721 24.7924 16.1721C23.3313 16.1721 21.875 16.0444 20.4463 15.7914C20.1801 18.2076 20.0224 20.803 19.9841 23.4878H29.6025C29.5642 20.803 29.4065 18.2082 29.1403 15.7914ZM36.4529 13.259C34.9367 14.0683 33.3461 14.7164 31.698 15.1931C31.9965 17.7957 32.1728 20.5944 32.2135 23.4878H38.4356C38.3043 19.8269 37.6238 16.337 36.4529 13.259ZM24.7924 2.61159C24.3672 2.61164 22.9877 3.67232 21.7251 8.51471C21.3552 9.93203 21.0416 11.5065 20.7844 13.1972C23.4212 13.6768 26.1677 13.6762 28.8009 13.1972C28.5437 11.5065 28.2296 9.93145 27.8603 8.51412L27.8596 8.51471C26.597 3.67221 25.2174 2.61159 24.7924 2.61159ZM20.6537 3.66261C18.677 4.69383 16.8496 6.46429 15.3052 8.88644C14.9053 9.51416 14.5354 10.1761 14.1894 10.8632C15.4832 11.5688 16.8382 12.1408 18.2388 12.5725C18.5032 10.8764 18.8239 9.29172 19.1986 7.85521C19.6309 6.19628 20.1165 4.79874 20.6537 3.66261ZM28.9323 3.66261C29.4688 4.79874 29.9545 6.19628 30.3873 7.85521C30.762 9.29172 31.0828 10.8758 31.3472 12.5719C32.7495 12.139 34.1045 11.5676 35.3965 10.8632C35.0506 10.1767 34.6807 9.51416 34.2808 8.88644C32.7364 6.46428 30.909 4.69383 28.9323 3.66261ZM15.0666 4.85989C13.3045 5.72323 11.6725 6.81326 10.2097 8.09269C10.772 8.58371 11.3584 9.04473 11.9651 9.4758C12.3201 8.78633 12.6977 8.11901 13.1036 7.48289V7.48231C13.717 6.52004 14.3735 5.64589 15.0666 4.85989ZM34.5194 4.86053C35.2119 5.64653 35.869 6.52063 36.4823 7.48289V7.48354C36.8882 8.11965 37.2659 8.78633 37.6209 9.4758C38.2276 9.04473 38.8139 8.5831 39.3757 8.09269C37.9128 6.81386 36.2814 5.72387 34.5194 4.86053Z" fill="var(--fill-0, white)"/>
</svg>
