<svg preserveAspectRatio="none" width="100%" height="100%" overflow="visible" style="display: block;" viewBox="0 0 45 45" fill="none" xmlns="http://www.w3.org/2000/svg">
<g id="Frame 106">
<path id="Vector" fill-rule="evenodd" clip-rule="evenodd" d="M13.7744 16.9531C13.7744 16.9986 13.7769 17.0867 13.7798 17.1489L13.7853 17.262L13.8702 17.2712C14.0715 17.2929 14.3269 17.4121 14.5811 17.6031C14.9437 17.8754 15.3157 18.2791 15.5825 18.6895C15.738 18.9288 15.7681 18.9911 16.1101 19.7812C16.4781 20.6315 16.8459 21.4745 17.4756 22.9115C18.6154 25.5124 18.9905 26.3729 19.5577 27.6881L19.7461 28.1251L19.9484 28.1273L20.1507 28.1295L20.3302 27.766C20.5164 27.3886 20.8496 26.7334 21.1537 26.1464C21.3437 25.7797 21.8921 24.7284 21.9581 24.6046C22.0289 24.4716 22.5299 23.5064 22.693 23.1888C22.7796 23.0201 22.8529 22.8796 22.8559 22.8765C22.8589 22.8734 23.3631 24.0531 23.9763 25.498L25.0913 28.1251L25.2791 28.1273L25.4669 28.1296L25.4867 28.0811C25.4975 28.0544 25.6083 27.7982 25.7328 27.5117C25.8574 27.2252 26.0538 26.7734 26.1693 26.5076C26.4085 25.9575 26.6374 25.4291 26.9465 24.7138C27.0643 24.4412 27.1909 24.1481 27.2279 24.0626C27.3451 23.7919 27.7411 22.875 27.9572 22.3738C29.1761 19.5474 29.6866 18.3743 29.7772 18.1915C30.0397 17.6616 30.4388 17.3562 30.9761 17.2743C31.0387 17.2647 31.1086 17.2569 31.1315 17.2569C31.1544 17.2569 31.1849 17.2546 31.1993 17.2517L31.2256 17.2464V17.0752C31.2256 16.9811 31.2246 16.9037 31.2235 16.9033C31.2213 16.9026 27.7438 16.8735 27.7418 16.8742C27.7412 16.8745 27.7393 16.9597 27.7376 17.0637L27.7345 17.2527L27.8101 17.2588C28.2136 17.2912 28.6091 17.4645 28.8267 17.7042C28.8886 17.7724 28.9577 17.8764 28.9955 17.9582L29.0255 18.0232L27.3685 21.8474C26.4571 23.9508 25.7051 25.6842 25.6974 25.6995L25.6834 25.7274L25.3085 24.8845C25.1023 24.4209 24.794 23.7278 24.6233 23.3443C24.0171 21.9823 23.7981 21.4809 23.7981 21.4554C23.7981 21.4492 24.1482 20.7184 24.5762 19.8315C25.0041 18.9446 25.3687 18.1887 25.3864 18.1517C25.4272 18.0665 25.4978 17.9715 25.6014 17.8625C25.8362 17.6155 26.1682 17.4202 26.5231 17.3202C26.655 17.2831 26.7263 17.2693 26.8767 17.2521C26.9418 17.2446 26.9957 17.238 26.9964 17.2372C26.9971 17.2365 26.9956 17.1541 26.9931 17.0542L26.9885 16.8724L26.828 16.8752C26.7397 16.8768 25.987 16.8803 25.1554 16.8831C24.3237 16.8858 23.6427 16.8888 23.6419 16.8897C23.6412 16.8907 23.638 16.9731 23.6347 17.0729L23.6288 17.2544L23.7282 17.26C24.2608 17.2901 24.5535 17.3745 24.6743 17.5329C24.7347 17.6121 24.7434 17.6421 24.7428 17.7695C24.7424 17.8681 24.7393 17.8927 24.7193 17.9585C24.6698 18.1212 24.1701 19.1909 23.6108 20.3313L23.3743 20.8136L23.3215 20.7052C23.228 20.5129 23.0547 20.1321 22.772 19.4977C22.437 18.7462 22.3696 18.5975 22.2268 18.2946C22.0462 17.9117 22.0336 17.8827 22.0199 17.8184C21.9848 17.6532 22.0433 17.5128 22.1881 17.4144C22.313 17.3296 22.5077 17.2699 22.7143 17.2531C22.7489 17.2502 22.7971 17.2459 22.8214 17.2434L22.8655 17.2389V17.0643V16.8898L20.9281 16.8835C19.8626 16.8801 18.9896 16.8786 18.988 16.8802C18.9865 16.8818 18.9826 16.9666 18.9792 17.0688L18.9731 17.2546L19.1065 17.2603C19.4851 17.2765 19.7165 17.3108 19.934 17.3829C20.1702 17.4611 20.3623 17.5928 20.4684 17.749C20.5314 17.8419 20.662 18.1174 21.0356 18.9458C21.1518 19.2035 21.8947 20.8695 21.9835 21.0715C22.1191 21.38 22.4433 22.0883 22.469 22.1321C22.4817 22.1537 22.4813 22.1575 22.4633 22.1951C22.4352 22.2538 22.3085 22.4936 21.3322 24.3357C20.8742 25.1999 20.46 25.99 20.4402 26.0371L20.4314 26.0581L20.4139 26.0239C20.3544 25.9074 19.8885 24.8338 19.1013 22.9998C18.4995 21.5975 18.0925 20.6531 17.6983 19.744C17.5205 19.3337 17.2249 18.6637 17.1183 18.429C17.0574 18.295 16.9998 18.1627 16.9904 18.135C16.9671 18.0666 16.9656 17.9433 16.9872 17.8787C17.0355 17.7348 17.1602 17.6029 17.3516 17.4934C17.5424 17.3842 17.8136 17.2993 18.0763 17.2665L18.1897 17.2524L18.192 17.0614L18.1942 16.8704H15.9843H13.7744V16.9531Z" fill="var(--fill-0, #D9D9D9)"/>
</g>
</svg>
