<svg preserveAspectRatio="none" width="100%" height="100%" overflow="visible" style="display: block;" viewBox="0 0 45 45" fill="none" xmlns="http://www.w3.org/2000/svg">
<g id="Frame 110">
<mask id="path-1-inside-1_595_1841" fill="white">
<path d="M0 2C0 0.89543 0.895431 0 2 0H43C44.1046 0 45 0.895431 45 2V43C45 44.1046 44.1046 45 43 45H2C0.89543 45 0 44.1046 0 43V2Z"/>
</mask>
<path d="M0 2C0 0.89543 0.895431 0 2 0H43C44.1046 0 45 0.895431 45 2V43C45 44.1046 44.1046 45 43 45H2C0.89543 45 0 44.1046 0 43V2Z" fill="url(#paint0_radial_595_1841)"/>
<path d="M2 0V0.5H43V0V-0.5H2V0ZM45 2H44.5V43H45H45.5V2H45ZM43 45V44.5H2V45V45.5H43V45ZM0 43H0.5V2H0H-0.5V43H0ZM2 45V44.5C1.17157 44.5 0.5 43.8284 0.5 43H0H-0.5C-0.5 44.3807 0.619288 45.5 2 45.5V45ZM45 43H44.5C44.5 43.8284 43.8284 44.5 43 44.5V45V45.5C44.3807 45.5 45.5 44.3807 45.5 43H45ZM43 0V0.5C43.8284 0.5 44.5 1.17157 44.5 2H45H45.5C45.5 0.619288 44.3807 -0.5 43 -0.5V0ZM2 0V-0.5C0.619288 -0.5 -0.5 0.619288 -0.5 2H0H0.5C0.5 1.17157 1.17157 0.5 2 0.5V0Z" fill="url(#paint1_linear_595_1841)" mask="url(#path-1-inside-1_595_1841)"/>
<path id="Union" fill-rule="evenodd" clip-rule="evenodd" d="M23.1274 17.3015C23.9352 16.4938 25.0617 16.2029 26.1 16.4236C26.3718 16.4815 26.5447 16.6832 26.5942 16.9148C26.6422 17.1406 26.5734 17.3908 26.392 17.572L25.1137 18.8504C24.8214 19.1433 24.8212 19.6183 25.1137 19.9109C25.4063 20.2032 25.8813 20.2032 26.1742 19.9109L27.4535 18.6326C27.635 18.4513 27.8849 18.3822 28.1108 18.4304C28.3423 18.48 28.5432 18.6536 28.601 18.9256C28.8214 19.9639 28.5308 21.0905 27.7231 21.8982C26.7907 22.8301 25.4354 23.0718 24.2787 22.6355L18.6352 28.282C18.1471 28.7698 17.3556 28.7696 16.8676 28.282L16.6938 28.1082C16.2057 27.6201 16.2059 26.8288 16.6938 26.3406L22.3588 20.6726C21.9605 19.5321 22.2154 18.2137 23.1274 17.3015ZM27.5463 21.7205C27.436 21.8307 27.3186 21.9299 27.1967 22.0193C27.2563 21.9756 27.3155 21.9303 27.3725 21.8816C27.4319 21.8308 27.4901 21.7767 27.5463 21.7205ZM25.0942 20.2156C25.1058 20.2232 25.1185 20.229 25.1303 20.2361C25.1147 20.2267 25.0986 20.2181 25.0834 20.2078L25.0942 20.2156ZM26.1567 20.2361C26.1687 20.2289 26.1819 20.2234 26.1938 20.2156L26.2045 20.2078C26.1891 20.2182 26.1725 20.2266 26.1567 20.2361ZM24.724 18.9871C24.7599 18.903 24.8087 18.8234 24.8686 18.7498L24.9369 18.6736C24.8439 18.7667 24.7727 18.8729 24.724 18.9871Z" fill="var(--fill-0, white)"/>
</g>
<defs>
<radialGradient id="paint0_radial_595_1841" cx="0" cy="0" r="1" gradientUnits="userSpaceOnUse" gradientTransform="translate(9.99482 45) rotate(-67.626) scale(32.8521)">
<stop stop-color="#253143"/>
<stop offset="1" stop-color="#1A1B1C"/>
</radialGradient>
<linearGradient id="paint1_linear_595_1841" x1="22.5" y1="0" x2="22.5" y2="45" gradientUnits="userSpaceOnUse">
<stop stop-color="#333537"/>
<stop offset="1" stop-color="#262A2D"/>
</linearGradient>
</defs>
</svg>
