<svg preserveAspectRatio="none" width="100%" height="100%" overflow="visible" style="display: block;" viewBox="0 0 45 45" fill="none" xmlns="http://www.w3.org/2000/svg">
<g id="Frame 111">
<path id="Star 3" d="M21.9435 15.9043C22.1187 15.3652 22.8813 15.3652 23.0565 15.9043L24.3857 19.9952C24.464 20.2363 24.6887 20.3995 24.9422 20.3995H29.2436C29.8104 20.3995 30.0461 21.1248 29.5875 21.458L26.1076 23.9863C25.9025 24.1353 25.8167 24.3994 25.895 24.6405L27.2243 28.7314C27.3994 29.2705 26.7824 29.7188 26.3239 29.3856L22.8439 26.8573C22.6388 26.7083 22.3612 26.7083 22.1561 26.8573L18.6761 29.3856C18.2176 29.7188 17.6006 29.2705 17.7757 28.7314L19.105 24.6405C19.1833 24.3994 19.0975 24.1353 18.8924 23.9863L15.4125 21.458C14.9539 21.1248 15.1896 20.3995 15.7564 20.3995H20.0578C20.3113 20.3995 20.536 20.2363 20.6143 19.9952L21.9435 15.9043Z" fill="var(--fill-0, #D9D9D9)"/>
</g>
</svg>
