<svg preserveAspectRatio="none" width="100%" height="100%" overflow="visible" style="display: block;" viewBox="0 0 45 45" fill="none" xmlns="http://www.w3.org/2000/svg">
<g id="Frame 105">
<g id="Subtract">
<path d="M28.7603 26.9382C28.7369 26.946 25.5908 27.993 22.5012 27.993C19.4116 27.993 16.2655 26.946 16.2421 26.9382V22.2404L17.2619 22.5333V26.4487C17.2622 26.7784 17.5296 27.0461 17.8594 27.0461C18.1891 27.0461 18.4565 26.7784 18.4568 26.4487V22.8775L22.5 24.0409L28.7603 22.2392V26.9382Z" fill="var(--fill-0, #D9D9D9)"/>
<path d="M32.5643 19.902L31.7895 20.1237L22.5 22.7981L18.4568 21.6336V21.2625L22.5852 19.7188C22.7666 19.6509 22.7665 19.3942 22.5852 19.3267C22.3599 19.2436 22.1123 19.2399 21.8851 19.3174L17.6668 20.7573L17.2619 20.8961V21.2905L12.4357 19.902L22.5 17.007L32.5643 19.902Z" fill="var(--fill-0, #D9D9D9)"/>
</g>
</g>
</svg>
