<svg preserveAspectRatio="none" width="100%" height="100%" overflow="visible" style="display: block;" viewBox="0 0 45 45" fill="none" xmlns="http://www.w3.org/2000/svg">
<g id="Frame 102">
<g id="Union">
<path d="M25.7408 16.5C26.1084 16.5003 26.4069 16.7233 26.4072 16.999V20.7656C26.4069 22.0557 25.2941 23.1485 23.7508 23.54V26.4707H25.7408C26.1084 26.471 26.4069 26.694 26.4072 26.9697V28C26.4069 28.2759 26.1074 28.5 25.7395 28.5H19.2605C18.8926 28.5 18.5944 28.2759 18.5941 28V26.9697C18.5944 26.6938 18.8926 26.4707 19.2605 26.4707H21.2505V23.54C19.7064 23.1488 18.5941 22.0553 18.5941 20.7646V16.999C18.5944 16.7233 18.8916 16.5003 19.2592 16.5H25.7408Z" fill="var(--fill-0, #D9D9D9)"/>
<path d="M16.7914 18.2168C17.1782 17.8343 17.8457 18.1302 17.8457 18.6104C17.8457 18.7525 17.7761 18.8879 17.6986 19.0176C17.6243 19.142 17.5828 19.2797 17.5828 19.4248C17.5829 19.5696 17.6245 19.707 17.6986 19.8311C17.7761 19.9607 17.8457 20.0962 17.8457 20.2383C17.8457 20.718 17.1781 21.0138 16.7914 20.6318C16.5037 20.3475 16.315 20.0038 16.2643 19.6289L16.25 19.4248C16.25 18.9707 16.452 18.5526 16.7914 18.2168Z" fill="var(--fill-0, #D9D9D9)"/>
<path d="M27.1543 18.6104C27.1543 18.1303 27.8219 17.8343 28.2086 18.2168C28.548 18.5526 28.75 18.9708 28.75 19.4248L28.7357 19.6289C28.685 20.0038 28.4963 20.3475 28.2086 20.6318C27.8219 21.0139 27.1544 20.718 27.1543 20.2383C27.1543 20.0962 27.2239 19.9607 27.3014 19.8311C27.3755 19.707 27.4171 19.5697 27.4172 19.4248C27.4172 19.2797 27.3757 19.142 27.3014 19.0176C27.224 18.8879 27.1544 18.7524 27.1543 18.6104Z" fill="var(--fill-0, #D9D9D9)"/>
</g>
</g>
</svg>
