<svg preserveAspectRatio="none" width="100%" height="100%" overflow="visible" style="display: block;" viewBox="0 0 45 45" fill="none" xmlns="http://www.w3.org/2000/svg">
<g id="Frame 108">
<g id="Union">
<path d="M21.8169 27.0333C21.4627 27.696 20.7842 28.1061 20.0458 28.1061H15.478L17.7034 24.0132C18.0609 23.3573 18.7359 22.9514 19.471 22.9514H24.0118L21.8169 27.0333Z" fill="var(--fill-0, #D9D9D9)"/>
<path d="M25.1483 16.8939C26.0705 16.8939 26.8793 17.5368 27.1066 18.4525L29.522 28.1061H26.8659C25.9404 28.1061 25.1314 27.463 24.9042 26.5406L22.5187 16.8939H25.1483Z" fill="var(--fill-0, #D9D9D9)"/>
<path d="M22.5187 16.8939L20.3198 20.9799C19.9656 21.6425 19.2871 22.0521 18.5487 22.0521H15.5148L17.7401 17.9563C18.0976 17.3003 18.776 16.8939 19.5077 16.8939H22.5187Z" fill="var(--fill-0, #D9D9D9)"/>
</g>
</g>
</svg>
