<svg preserveAspectRatio="none" width="100%" height="100%" overflow="visible" style="display: block;" viewBox="0 0 62 62" fill="none" xmlns="http://www.w3.org/2000/svg">
<g id="Frame 2">
<g id="Union">
<path d="M29.8384 38.709C29.2361 39.8358 28.0823 40.5331 26.8267 40.5332H19.0591L22.8433 33.5732C23.4513 32.4579 24.5992 31.7676 25.8491 31.7676H33.5708L29.8384 38.709Z" fill="var(--fill-0, white)"/>
<path d="M35.5034 21.4668C37.0717 21.4668 38.4471 22.56 38.8335 24.1172L42.9409 40.5332H38.4243C36.8504 40.5332 35.4748 39.4396 35.0884 37.8711L31.0317 21.4668H35.5034Z" fill="var(--fill-0, white)"/>
<path d="M31.0317 21.4668L27.2925 28.415C26.6902 29.5418 25.5365 30.2383 24.2808 30.2383H19.1216L22.9058 23.2734C23.5137 22.1579 24.6673 21.4668 25.9116 21.4668H31.0317Z" fill="var(--fill-0, white)"/>
</g>
</g>
</svg>
