<svg preserveAspectRatio="none" width="100%" height="100%" overflow="visible" style="display: block;" viewBox="0 0 45 45" fill="none" xmlns="http://www.w3.org/2000/svg">
<g id="Frame 107">
<path id="Union" fill-rule="evenodd" clip-rule="evenodd" d="M22.5005 16.7568C23.7856 16.7569 24.8275 17.7989 24.8276 19.084V19.8604C24.8276 19.9448 24.8227 20.0283 24.814 20.1104H25.6821C26.187 20.1106 26.6127 20.4871 26.6743 20.9883L27.4282 27.1211C27.5015 27.7172 27.0366 28.243 26.436 28.2432H18.564C17.9633 28.2432 17.4985 27.7173 17.5718 27.1211L18.3257 20.9883C18.3873 20.487 18.8129 20.1104 19.3179 20.1104H20.187C20.1783 20.0283 20.1733 19.9448 20.1733 19.8604V19.084C20.1734 17.7988 21.2153 16.7568 22.5005 16.7568ZM22.5005 17.7568C21.7676 17.7568 21.1734 18.3511 21.1733 19.084V19.8604C21.1733 19.9458 21.1814 20.0294 21.1968 20.1104H23.8032C23.8187 20.0294 23.8276 19.9458 23.8276 19.8604V19.084C23.8275 18.3512 23.2333 17.7569 22.5005 17.7568Z" fill="var(--fill-0, #D9D9D9)"/>
</g>
</svg>
