<svg preserveAspectRatio="none" width="100%" height="100%" overflow="visible" style="display: block;" viewBox="0 0 45 45" fill="none" xmlns="http://www.w3.org/2000/svg">
<g id="Frame 99">
<g id="Vector">
<path d="M16.5 18.5C16.5 17.3954 17.3954 16.5 18.5 16.5H19.5C20.6046 16.5 21.5 17.3954 21.5 18.5V19.5C21.5 20.6046 20.6046 21.5 19.5 21.5H18.5C17.3954 21.5 16.5 20.6046 16.5 19.5V18.5Z" fill="var(--fill-0, #D9D9D9)"/>
<path d="M23.5 18.5C23.5 17.3954 24.3954 16.5 25.5 16.5H26.5C27.6046 16.5 28.5 17.3954 28.5 18.5V19.5C28.5 20.6046 27.6046 21.5 26.5 21.5H25.5C24.3954 21.5 23.5 20.6046 23.5 19.5V18.5Z" fill="var(--fill-0, #D9D9D9)"/>
<path d="M16.5 25.5C16.5 24.3954 17.3954 23.5 18.5 23.5H19.5C20.6046 23.5 21.5 24.3954 21.5 25.5V26.5C21.5 27.6046 20.6046 28.5 19.5 28.5H18.5C17.3954 28.5 16.5 27.6046 16.5 26.5V25.5Z" fill="var(--fill-0, #D9D9D9)"/>
<path d="M23.5 25.5C23.5 24.3954 24.3954 23.5 25.5 23.5H26.5C27.6046 23.5 28.5 24.3954 28.5 25.5V26.5C28.5 27.6046 27.6046 28.5 26.5 28.5H25.5C24.3954 28.5 23.5 27.6046 23.5 26.5V25.5Z" fill="var(--fill-0, #D9D9D9)"/>
</g>
</g>
</svg>
