<svg width="64" height="64" viewBox="0 0 64 64" fill="none" xmlns="http://www.w3.org/2000/svg">
<path d="M12.0002 58.6663V45.333M12.0002 18.6663V5.33301M5.3335 11.9997H18.6668M5.3335 51.9997H18.6668M34.6668 7.99967L30.0424 20.0233C29.2903 21.9786 28.9143 22.9562 28.3296 23.7786C27.8113 24.5074 27.1746 25.1442 26.4457 25.6624C25.6234 26.2472 24.6457 26.6232 22.6905 27.3752L10.6668 31.9997L22.6905 36.6241C24.6457 37.3762 25.6234 37.7522 26.4457 38.3369C27.1746 38.8552 27.8113 39.4919 28.3296 40.2208C28.9143 41.0431 29.2903 42.0208 30.0424 43.976L34.6668 55.9997L39.2913 43.976C40.0433 42.0208 40.4194 41.0431 41.0041 40.2208C41.5223 39.4919 42.1591 38.8552 42.8879 38.3369C43.7103 37.7522 44.6879 37.3762 46.6432 36.6241L58.6668 31.9997L46.6432 27.3752C44.6879 26.6232 43.7103 26.2472 42.8879 25.6624C42.1591 25.1442 41.5223 24.5074 41.0041 23.7786C40.4194 22.9562 40.0433 21.9786 39.2913 20.0233L34.6668 7.99967Z" stroke="white" stroke-width="4" stroke-linecap="round" stroke-linejoin="round"/>
</svg>
