<svg width="64" height="64" viewBox="0 0 64 64" fill="none" xmlns="http://www.w3.org/2000/svg">
<path d="M37.3335 58.6663H18.1335M18.1335 58.6663C13.6531 58.6663 11.4129 58.6663 9.70157 57.7944C8.19628 57.0274 6.97243 55.8036 6.20544 54.2983C5.3335 52.587 5.3335 50.3468 5.3335 45.8663M18.1335 58.6663H19.2002C23.6806 58.6663 25.9208 58.6663 27.6321 57.7944C29.1374 57.0274 30.3612 55.8036 31.1282 54.2983C32.0002 52.587 32.0002 50.3468 32.0002 45.8663V44.7997C32.0002 40.3193 32.0002 38.079 31.1282 36.3678C30.3612 34.8625 29.1374 33.6386 27.6321 32.8716C25.9208 31.9997 23.6806 31.9997 19.2002 31.9997H18.1335C13.6531 31.9997 11.4129 31.9997 9.70157 32.8716C8.19628 33.6386 6.97243 34.8625 6.20544 36.3678C5.3335 38.079 5.3335 40.3193 5.3335 44.7997V45.8663M5.3335 45.8663V26.6663M26.6668 5.33301H37.3335M58.6668 26.6663V37.333M48.0002 58.6663C50.4801 58.6663 51.72 58.6663 52.7374 58.3937C55.4981 57.654 57.6545 55.4976 58.3942 52.7369C58.6668 51.7196 58.6668 50.4796 58.6668 47.9997M58.6668 15.9997C58.6668 13.5198 58.6668 12.2798 58.3942 11.2625C57.6545 8.50172 55.4981 6.34534 52.7374 5.6056C51.72 5.33301 50.4801 5.33301 48.0002 5.33301M16.0002 5.33301C13.5202 5.33301 12.2803 5.33301 11.2629 5.6056C8.50221 6.34534 6.34583 8.50172 5.60609 11.2625C5.3335 12.2798 5.3335 13.5198 5.3335 15.9997" stroke="white" stroke-width="4" stroke-linecap="round" stroke-linejoin="round"/>
</svg>
