<svg width="864" height="222" viewBox="0 0 864 222" fill="none" xmlns="http://www.w3.org/2000/svg">
<g filter="url(#filter0_dd_3616_27007)">
<path d="M320.956 18.5809L321.113 33.4389C316.914 28.079 311.577 23.8226 305.062 20.7091C298.508 17.635 290.384 16.0586 280.73 16.0586C272.528 16.0586 264.875 17.5562 257.772 20.4726C250.669 23.3891 244.546 27.606 239.366 33.0448C234.186 38.4835 230.104 44.9863 227.161 52.4745C224.257 59.9231 222.805 68.0812 222.805 76.9882C222.805 85.8951 224.257 94.4079 227.161 102.093C230.065 109.699 234.146 116.281 239.366 121.72C244.546 127.158 250.669 131.454 257.772 134.568C264.875 137.642 272.528 139.218 280.73 139.218C290.424 139.218 298.547 137.602 305.062 134.41C311.577 131.257 316.914 127.04 321.113 121.838L320.956 136.696H349.173V18.5809H320.956ZM318.091 91.5308C316.443 95.9843 314.049 99.8466 310.949 103.118C307.848 106.428 304.159 109.029 299.803 110.921C295.447 112.892 290.659 113.798 285.518 113.798C280.377 113.798 275.628 112.852 271.468 110.921C267.269 108.99 263.698 106.428 260.715 103.118C257.693 99.8466 255.339 96.0237 253.69 91.5308C252.003 87.1168 251.179 82.3481 251.179 77.3034C251.179 72.2588 252.003 67.5689 253.69 63.2337C255.339 58.859 257.693 55.0756 260.715 51.8833C263.698 48.691 267.308 46.1687 271.468 44.3164C275.668 42.4246 280.338 41.5182 285.518 41.5182C290.698 41.5182 295.447 42.4246 299.803 44.3164C304.159 46.1687 307.848 48.691 310.949 51.8833C314.049 55.0756 316.443 58.8196 318.091 63.2337C319.779 67.6083 320.603 72.2982 320.603 77.3034C320.603 82.3086 319.779 87.1168 318.091 91.5308Z" fill="#212120"/>
<path d="M451.485 18.5801L419.618 108.28L387.79 18.5801H356.944L402.821 136.735H436.179L482.331 18.5801H451.485Z" fill="#212120"/>
<path d="M592.924 51.4892C590.098 44.1587 586.056 37.8923 580.758 32.6113C575.499 27.3302 569.22 23.2314 561.842 20.3544C554.464 17.5168 546.301 16.0586 537.275 16.0586C527.385 16.0586 518.673 17.7927 511.177 21.2609C503.642 24.729 497.323 29.2613 492.261 34.9759C487.12 40.6905 483.234 47.2722 480.605 54.6026C477.897 62.0119 476.602 69.7365 476.602 77.7764C476.602 85.8162 477.858 93.3438 480.487 100.714C483.077 108.123 486.884 114.665 491.908 120.34C496.931 126.055 503.21 130.627 510.706 134.055C518.241 137.524 526.836 139.258 536.529 139.258C550.893 139.258 563.294 135.671 573.733 128.538C584.212 121.404 591.433 111.512 595.475 98.9401L566.12 99.216C563.294 104.064 559.527 107.768 554.935 110.291C550.343 112.813 544.888 114.035 538.531 114.035C532.84 114.035 527.895 113.128 523.775 111.236C519.575 109.384 516.082 106.862 513.218 103.591C510.392 100.32 508.233 96.4178 506.821 91.8855C506.154 89.7179 505.643 87.4715 505.29 85.1068H596.456C596.809 83.6092 597.006 82.1116 597.084 80.5746C597.163 79.0769 597.241 77.3823 597.241 75.5299C597.241 66.8201 595.789 58.7802 592.924 51.4892ZM505.879 65.953C506.114 64.8495 506.35 63.8248 506.664 62.8002C507.998 58.3861 510.039 54.445 512.668 51.1345C515.376 47.7451 518.712 45.144 522.833 43.1734C526.953 41.2423 531.663 40.2964 537 40.2964C540.65 40.2964 544.3 40.8876 547.91 42.0699C551.481 43.2523 554.739 44.9075 557.682 47.1145C560.586 49.2822 563.019 52.0015 564.982 55.1938C566.905 58.3861 568.121 61.9725 568.592 65.9925H505.84L505.879 65.953Z" fill="#212120"/>
<path d="M720.352 18.5808L664.938 151.83C662.623 157.387 661.603 159.751 658.698 164.284C655.755 168.816 652.38 172.639 648.495 175.87C644.649 179.063 640.214 181.546 635.073 183.28C630.05 185.014 624.163 185.92 617.413 185.96H610.427V160.973H615.804C622.711 160.855 627.97 159.121 631.58 155.81C635.348 152.381 636.761 150.017 639.115 143.475L641.117 137.918L591.433 18.502H622.554L655.912 107.019L689.27 18.502H720.352V18.5808Z" fill="#212120"/>
<path d="M834.751 53.3809C831.572 45.814 827.177 39.3506 821.604 33.833C815.992 28.3943 809.32 24.059 801.628 20.8667C793.976 17.6744 785.577 16.0586 776.59 16.0586C767.603 16.0586 758.93 17.6744 751.238 20.8667C743.585 24.059 736.914 28.3943 731.302 33.833C725.689 39.3111 721.333 45.814 718.154 53.3809C714.976 60.9478 713.406 69.0665 713.406 77.7764C713.406 86.4862 714.976 94.6443 718.154 102.132C721.333 109.621 725.689 116.084 731.302 121.641C736.914 127.198 743.585 131.533 751.238 134.647C758.93 137.721 767.407 139.297 776.59 139.297C785.773 139.297 793.976 137.721 801.628 134.647C809.32 131.533 815.992 127.198 821.604 121.641C827.177 116.123 831.572 109.621 834.751 102.132C837.891 94.6443 839.5 86.565 839.5 77.7764C839.5 68.9877 837.891 60.9084 834.751 53.3809ZM808.536 91.6491C806.77 96.0237 804.376 99.7678 801.393 102.881C798.371 105.995 794.721 108.438 790.483 110.33C786.205 112.182 781.574 113.089 776.59 113.089C771.606 113.089 766.661 112.182 762.423 110.33C758.145 108.438 754.495 105.995 751.513 102.881C748.53 99.7678 746.136 96.0631 744.37 91.6491C742.604 87.2744 741.701 82.6634 741.701 77.7764C741.701 72.8894 742.604 68.0418 744.37 63.7066C746.136 59.332 748.53 55.5879 751.513 52.5139C754.495 49.4004 758.184 46.9175 762.423 45.0652C766.7 43.2128 771.41 42.267 776.59 42.267C781.771 42.267 786.244 43.2128 790.483 45.0652C794.761 46.9175 798.371 49.4004 801.393 52.5139C804.376 55.5879 806.77 59.332 808.536 63.7066C810.302 68.0812 811.165 72.7712 811.165 77.7764C811.165 82.7816 810.302 87.2744 808.536 91.6491Z" fill="#212120"/>
</g>
<g filter="url(#filter1_dd_3616_27007)">
<path d="M189.446 144.697H158.247C147.376 144.697 137.879 137.091 135.21 126.174L107.189 12H138.075C148.906 12 158.404 19.6063 161.072 30.4444L189.446 144.697Z" fill="#212120"/>
<path d="M24.5 144.698H78.1479C86.821 144.698 94.7877 139.85 98.9477 132.007L124.732 83.6895H71.3977C62.7638 83.6895 54.8364 88.4976 50.6371 96.2616L24.5 144.698Z" fill="#212120"/>
<path d="M24.9316 73.0478H60.5661C69.2392 73.0478 77.2059 68.2002 81.3659 60.3574L107.189 12H71.8294C63.2347 12 55.268 16.8082 51.0688 24.5721L24.9316 73.0478Z" fill="#212120"/>
</g>
<defs>
<filter id="filter0_dd_3616_27007" x="198.805" y="4.05859" width="664.695" height="217.9" filterUnits="userSpaceOnUse" color-interpolation-filters="sRGB">
<feFlood flood-opacity="0" result="BackgroundImageFix"/>
<feColorMatrix in="SourceAlpha" type="matrix" values="0 0 0 0 0 0 0 0 0 0 0 0 0 0 0 0 0 0 127 0" result="hardAlpha"/>
<feMorphology radius="4" operator="erode" in="SourceAlpha" result="effect1_dropShadow_3616_27007"/>
<feOffset dy="8"/>
<feGaussianBlur stdDeviation="4"/>
<feComposite in2="hardAlpha" operator="out"/>
<feColorMatrix type="matrix" values="0 0 0 0 0 0 0 0 0 0.105768 0 0 0 0 0.264421 0 0 0 0.07 0"/>
<feBlend mode="normal" in2="BackgroundImageFix" result="effect1_dropShadow_3616_27007"/>
<feColorMatrix in="SourceAlpha" type="matrix" values="0 0 0 0 0 0 0 0 0 0 0 0 0 0 0 0 0 0 127 0" result="hardAlpha"/>
<feMorphology radius="10" operator="erode" in="SourceAlpha" result="effect2_dropShadow_3616_27007"/>
<feOffset dy="12"/>
<feGaussianBlur stdDeviation="17"/>
<feComposite in2="hardAlpha" operator="out"/>
<feColorMatrix type="matrix" values="0 0 0 0 0 0 0 0 0 0.31375 0 0 0 0 0.784375 0 0 0 0.1 0"/>
<feBlend mode="normal" in2="effect1_dropShadow_3616_27007" result="effect2_dropShadow_3616_27007"/>
<feBlend mode="normal" in="SourceGraphic" in2="effect2_dropShadow_3616_27007" result="shape"/>
</filter>
<filter id="filter1_dd_3616_27007" x="0.5" y="0" width="212.946" height="180.697" filterUnits="userSpaceOnUse" color-interpolation-filters="sRGB">
<feFlood flood-opacity="0" result="BackgroundImageFix"/>
<feColorMatrix in="SourceAlpha" type="matrix" values="0 0 0 0 0 0 0 0 0 0 0 0 0 0 0 0 0 0 127 0" result="hardAlpha"/>
<feMorphology radius="4" operator="erode" in="SourceAlpha" result="effect1_dropShadow_3616_27007"/>
<feOffset dy="8"/>
<feGaussianBlur stdDeviation="4"/>
<feComposite in2="hardAlpha" operator="out"/>
<feColorMatrix type="matrix" values="0 0 0 0 0 0 0 0 0 0.105768 0 0 0 0 0.264421 0 0 0 0.07 0"/>
<feBlend mode="normal" in2="BackgroundImageFix" result="effect1_dropShadow_3616_27007"/>
<feColorMatrix in="SourceAlpha" type="matrix" values="0 0 0 0 0 0 0 0 0 0 0 0 0 0 0 0 0 0 127 0" result="hardAlpha"/>
<feMorphology radius="10" operator="erode" in="SourceAlpha" result="effect2_dropShadow_3616_27007"/>
<feOffset dy="12"/>
<feGaussianBlur stdDeviation="17"/>
<feComposite in2="hardAlpha" operator="out"/>
<feColorMatrix type="matrix" values="0 0 0 0 0 0 0 0 0 0.31375 0 0 0 0 0.784375 0 0 0 0.1 0"/>
<feBlend mode="normal" in2="effect1_dropShadow_3616_27007" result="effect2_dropShadow_3616_27007"/>
<feBlend mode="normal" in="SourceGraphic" in2="effect2_dropShadow_3616_27007" result="shape"/>
</filter>
</defs>
</svg>
