<svg width="64" height="64" viewBox="0 0 64 64" fill="none" xmlns="http://www.w3.org/2000/svg">
<path d="M23.9998 30.6666L29.3332 36L41.3332 24M53.3332 32C53.3332 45.0892 39.0559 54.609 33.8611 57.6397C33.2708 57.9841 32.9756 58.1563 32.559 58.2456C32.2357 58.315 31.764 58.315 31.4407 58.2456C31.0241 58.1563 30.7289 57.9841 30.1385 57.6397C24.9437 54.609 10.6665 45.0892 10.6665 32V19.2469C10.6665 17.1149 10.6665 16.0489 11.0152 15.1325C11.3232 14.323 11.8238 13.6007 12.4736 13.0281C13.2092 12.3798 14.2073 12.0055 16.2036 11.2569L30.5017 5.89511C31.0561 5.68722 31.3333 5.58327 31.6185 5.54206C31.8714 5.50551 32.1283 5.50551 32.3812 5.54206C32.6664 5.58327 32.9436 5.68722 33.498 5.89511L47.7961 11.2569C49.7924 12.0055 50.7905 12.3798 51.5261 13.0281C52.1759 13.6007 52.6764 14.323 52.9845 15.1325C53.3332 16.0489 53.3332 17.1149 53.3332 19.2469V32Z" stroke="white" stroke-width="4" stroke-linecap="round" stroke-linejoin="round"/>
</svg>
