<svg width="12" height="12" viewBox="0 0 12 12" fill="none" xmlns="http://www.w3.org/2000/svg">
<path d="M3.76562 0.694336C4.59405 0.694336 5.26562 1.36591 5.26562 2.19434V3.45508H4.26562V2.19434C4.26562 1.91819 4.04177 1.69434 3.76562 1.69434H1.53125C1.25511 1.69434 1.03125 1.91819 1.03125 2.19434V10.3574C1.03151 10.6333 1.25527 10.8574 1.53125 10.8574H3.76562C4.0416 10.8574 4.26536 10.6333 4.26562 10.3574V9.05469H5.26562V10.3574C5.26536 11.1856 4.59389 11.8574 3.76562 11.8574H1.53125C0.702986 11.8574 0.0315138 11.1856 0.03125 10.3574V2.19434C0.0312501 1.36591 0.702823 0.694336 1.53125 0.694336H3.76562Z" fill="white"/>
<path d="M7.0293 2.71973C7.22452 2.52468 7.54111 2.52468 7.73633 2.71973L10.918 5.90137C11.1132 6.09657 11.1131 6.41312 10.918 6.6084L7.73633 9.79004C7.54107 9.9853 7.22456 9.9853 7.0293 9.79004C6.8342 9.59476 6.83409 9.27822 7.0293 9.08301L9.35742 6.75488H4.26562V5.75488H9.35742L7.0293 3.42676C6.8342 3.23148 6.83409 2.91493 7.0293 2.71973Z" fill="white"/>
</svg>
