<svg width="60" height="60" viewBox="0 0 60 60" fill="none" xmlns="http://www.w3.org/2000/svg">
<path d="M35 5.67383V16.0002C35 17.4003 35 18.1004 35.2725 18.6352C35.5122 19.1056 35.8946 19.488 36.365 19.7277C36.8998 20.0002 37.5999 20.0002 39 20.0002H49.3263M40 32.5H20M40 42.5H20M25 22.5H20M35 5H22C17.7996 5 15.6994 5 14.0951 5.81745C12.6839 6.5365 11.5365 7.68386 10.8175 9.09507C10 10.6994 10 12.7996 10 17V43C10 47.2004 10 49.3006 10.8175 50.9049C11.5365 52.3161 12.6839 53.4635 14.0951 54.1825C15.6994 55 17.7996 55 22 55H38C42.2004 55 44.3006 55 45.9049 54.1825C47.3161 53.4635 48.4635 52.3161 49.1825 50.9049C50 49.3006 50 47.2004 50 43V20L35 5Z" stroke="#212120" stroke-width="5" stroke-linecap="round" stroke-linejoin="round"/>
</svg>
