<svg width="60" height="61" viewBox="0 0 60 61" fill="none" xmlns="http://www.w3.org/2000/svg">
<path d="M42.7883 39.3725C42.1116 40.1377 41.4014 40.8932 40.6588 41.6358C29.9194 52.3753 16.4646 56.3325 10.6068 50.4747C6.59075 46.4587 7.188 38.872 11.4212 31.0376M17.2242 22.7902C17.9284 21.9894 18.6693 21.1989 19.4456 20.4226C30.185 9.68323 43.6398 5.72595 49.4976 11.5838C53.5164 15.6026 52.9156 23.1969 48.6745 31.037M40.6588 20.4226C51.3982 31.1621 55.3555 44.6168 49.4976 50.4747C43.6398 56.3325 30.185 52.3753 19.4456 41.6358C8.70618 30.8964 4.74889 17.4417 10.6068 11.5838C16.4646 5.72595 29.9194 9.68323 40.6588 20.4226ZM32.5002 30.977C32.5002 32.3577 31.3809 33.477 30.0002 33.477C28.6194 33.477 27.5002 32.3577 27.5002 30.977C27.5002 29.5963 28.6194 28.477 30.0002 28.477C31.3809 28.477 32.5002 29.5963 32.5002 30.977Z" stroke="#212120" stroke-width="5" stroke-linecap="round" stroke-linejoin="round"/>
</svg>
